<?xml version="1.0" encoding="UTF-8"?>
<svg id="Layer_1" xmlns="http://www.w3.org/2000/svg" version="1.1" viewBox="0 0 320 320">
  <!-- Generator: Adobe Illustrator 30.0.0, SVG Export Plug-In . SVG Version: 2.1.1 Build 123)  -->
  <path d="M121.28,178.75c0,5.94-.22,9.35,7.04,9.35h5.39c4.29,0,6.27-.33,7.37-4.62.66-2.53,2.64-4.29,5.28-4.29,2.97,0,5.39,2.31,5.39,5.28s-1.87,6.71-3.63,8.8c-3.85,4.62-8.91,5.39-14.52,5.39h-5.39c-5.28,0-9.9-1.21-13.64-5.28-4.07-4.51-3.85-9.02-3.85-14.74v-28.71h-3.41c-3.08,0-7.26-.66-7.26-5.28s3.74-5.28,7.26-5.28h3.41v-10.78c0-3.63.77-7.26,5.28-7.26s5.28,3.63,5.28,7.26v10.78h17.71c3.52,0,7.26.77,7.26,5.28s-4.18,5.28-7.26,5.28h-17.71v28.82h0Z"/>
  <path d="M189.48,178.75c0,5.94-.22,9.35,7.04,9.35h5.39c4.29,0,6.27-.33,7.37-4.62.66-2.53,2.64-4.29,5.28-4.29,2.97,0,5.39,2.31,5.39,5.28s-1.87,6.71-3.63,8.8c-3.85,4.62-8.91,5.39-14.52,5.39h-5.39c-5.28,0-9.9-1.21-13.64-5.28-4.07-4.51-3.85-9.02-3.85-14.74v-28.71h-3.41c-3.08,0-7.26-.66-7.26-5.28s3.74-5.28,7.26-5.28h3.41v-10.78c0-3.63.77-7.26,5.28-7.26s5.28,3.63,5.28,7.26v10.78h17.71c3.52,0,7.26.77,7.26,5.28s-4.18,5.28-7.26,5.28h-17.71v28.82h0Z"/>
</svg>